<?xml version="1.0" encoding="iso-8859-1"?>
<!-- Generator: Adobe Illustrator 19.0.0, SVG Export Plug-In . SVG Version: 6.00 Build 0)  -->
<svg version="1.1" id="Capa_1" xmlns="http://www.w3.org/2000/svg" xmlns:xlink="http://www.w3.org/1999/xlink" x="0px" y="0px"
	 viewBox="0 0 512 512" style="enable-background:new 0 0 512 512;" xml:space="preserve">
<path style="fill:#689BA6;" d="M486.4,68.267H25.6c-14.14,0-25.6,11.46-25.6,25.6V153.6h512V93.867
	C512,79.727,500.54,68.267,486.4,68.267z"/>
<g>
	<path style="fill:#653A4B;" d="M76.8,34.133c-14.14,0-25.6,11.46-25.6,25.6v34.133c0,14.14,11.46,25.6,25.6,25.6
		s25.6-11.46,25.6-25.6V59.733C102.4,45.594,90.94,34.133,76.8,34.133z"/>
	<path style="fill:#653A4B;" d="M196.267,34.133c-14.14,0-25.6,11.46-25.6,25.6v34.133c0,14.14,11.46,25.6,25.6,25.6
		s25.6-11.46,25.6-25.6V59.733C221.867,45.594,210.406,34.133,196.267,34.133z"/>
	<path style="fill:#653A4B;" d="M315.733,34.133c-14.14,0-25.6,11.46-25.6,25.6v34.133c0,14.14,11.46,25.6,25.6,25.6
		c14.14,0,25.6-11.46,25.6-25.6V59.733C341.333,45.594,329.873,34.133,315.733,34.133z"/>
	<path style="fill:#653A4B;" d="M435.2,34.133c-14.14,0-25.6,11.46-25.6,25.6v34.133c0,14.14,11.46,25.6,25.6,25.6
		c14.14,0,25.6-11.46,25.6-25.6V59.733C460.8,45.594,449.34,34.133,435.2,34.133z"/>
</g>
<path style="fill:#F1BBC5;" d="M0,136.533v315.733c0,14.14,11.46,25.6,25.6,25.6l0,0h460.8c14.14,0,25.6-11.46,25.6-25.6l0,0
	V136.533H0z"/>
<path style="fill:#D9415D;" d="M329.694,187.733c-16.674-0.043-32.674,6.579-44.433,18.406L256,235.401l-29.261-29.261
	c-24.542-24.542-64.333-24.542-88.866,0c-11.785,11.785-18.406,27.767-18.406,44.433c-0.077,27.614,10.897,54.101,30.473,73.574
	l87.962,87.953l0,0c9.993,9.993,26.197,9.993,36.198,0l87.962-87.962c19.575-19.465,30.549-45.961,30.473-73.566
	C392.499,215.885,364.382,187.767,329.694,187.733z"/>
<g>
</g>
<g>
</g>
<g>
</g>
<g>
</g>
<g>
</g>
<g>
</g>
<g>
</g>
<g>
</g>
<g>
</g>
<g>
</g>
<g>
</g>
<g>
</g>
<g>
</g>
<g>
</g>
<g>
</g>
</svg>
