<?xml version="1.0" encoding="iso-8859-1"?>
<!-- Generator: Adobe Illustrator 19.0.0, SVG Export Plug-In . SVG Version: 6.00 Build 0)  -->
<svg version="1.1" id="Capa_1" xmlns="http://www.w3.org/2000/svg" xmlns:xlink="http://www.w3.org/1999/xlink" x="0px" y="0px"
	 viewBox="0 0 512 512" style="enable-background:new 0 0 512 512;" xml:space="preserve">
<path style="fill:#DEDED9;" d="M499.676,512h-48V40h48c4.418,0,8,3.582,8,8v456C507.676,508.418,504.095,512,499.676,512z"/>
<path style="fill:#CDCDC7;" d="M75.676,40h376v472h-376c-4.418,0-8-3.582-8-8V48C67.676,43.582,71.258,40,75.676,40z"/>
<path style="fill:#EEEEEC;" d="M67.676,48v392h328c30.928,0,56-25.072,56-56V40h-376C71.258,40,67.676,43.582,67.676,48z"/>
<path style="fill:#DEDED9;" d="M332.179,384H12.342c-4.9,0-8.712,4.375-7.912,9.209C8.822,419.756,31.885,440,59.676,440h336
	c-28.537,0-52.088-21.345-55.559-48.94C339.611,387.038,336.233,384,332.179,384z"/>
<g>
	<rect x="463.68" y="40" style="fill:#CDCDC7;" width="12" height="472"/>
	<rect x="483.68" y="40" style="fill:#CDCDC7;" width="12" height="472"/>
</g>
<path style="fill:#75E0F1;" d="M451.676,144h-384V48c0-4.418,3.582-8,8-8h376V144z"/>
<g>
	<path style="fill:#9C9B8E;" d="M259.676,16c6.404,0,13.449,9.842,15.444,24h16.124c-2.471-22.977-15.447-40-31.569-40
		s-29.098,17.023-31.569,40c-0.279,2.597-0.431,5.266-0.431,8c0,26.916,14.056,48,32,48c4.418,0,8-3.582,8-8s-3.582-8-8-8
		c-7.553,0-16-13.685-16-32c0-2.785,0.198-5.461,0.556-8C246.227,25.842,253.272,16,259.676,16z"/>
	<path style="fill:#9C9B8E;" d="M363.676,16c6.404,0,13.449,9.842,15.444,24h16.124c-2.471-22.977-15.447-40-31.569-40
		s-29.098,17.023-31.569,40c-0.279,2.597-0.431,5.266-0.431,8c0,26.916,14.056,48,32,48c4.418,0,8-3.582,8-8s-3.582-8-8-8
		c-7.553,0-16-13.685-16-32c0-2.785,0.198-5.461,0.556-8C350.227,25.842,357.272,16,363.676,16z"/>
	<path style="fill:#9C9B8E;" d="M155.676,16c6.404,0,13.449,9.842,15.444,24h16.124c-2.471-22.977-15.447-40-31.569-40
		s-29.098,17.023-31.569,40c-0.279,2.597-0.431,5.266-0.431,8c0,26.916,14.056,48,32,48c4.418,0,8-3.582,8-8s-3.582-8-8-8
		c-7.553,0-16-13.685-16-32c0-2.785,0.198-5.461,0.556-8C142.227,25.842,149.272,16,155.676,16z"/>
</g>
<g>
	<path style="fill:#F498AC;" d="M259.676,250.182c-31.079,0-56.364,25.285-56.364,56.364c0,28.462,21.071,45.455,56.364,45.455
		s56.364-16.992,56.364-45.455C316.04,275.466,290.755,250.182,259.676,250.182z"/>
	<path style="fill:#F498AC;" d="M228.767,244.727c13.034,0,23.636-10.603,23.636-23.636c0-11.861-9.208-29.091-23.636-29.091
		c-14.428,0-23.636,17.23-23.636,29.091C205.131,234.124,215.734,244.727,228.767,244.727z"/>
	<path style="fill:#F498AC;" d="M290.586,244.727c13.034,0,23.636-10.603,23.636-23.636c0-11.861-9.208-29.091-23.636-29.091
		c-14.428,0-23.636,17.23-23.636,29.091C266.949,234.124,277.552,244.727,290.586,244.727z"/>
	<path style="fill:#F498AC;" d="M339.313,232c-14.428,0-23.636,17.23-23.636,29.091c0,13.033,10.603,23.636,23.636,23.636
		c13.034,0,23.636-10.603,23.636-23.636C362.949,249.23,353.741,232,339.313,232z"/>
	<path style="fill:#F498AC;" d="M203.676,261.091c0-11.861-9.208-29.091-23.636-29.091s-23.636,17.23-23.636,29.091
		c0,13.033,10.603,23.636,23.636,23.636S203.676,274.124,203.676,261.091z"/>
</g>
<g>
</g>
<g>
</g>
<g>
</g>
<g>
</g>
<g>
</g>
<g>
</g>
<g>
</g>
<g>
</g>
<g>
</g>
<g>
</g>
<g>
</g>
<g>
</g>
<g>
</g>
<g>
</g>
<g>
</g>
</svg>
